<svg xmlns="http://www.w3.org/2000/svg" xmlns:xlink="http://www.w3.org/1999/xlink" width="128.453" height="323.076" viewBox="0 0 128.453 323.076">
  <defs>
    <filter id="Polygon_1">
      <feOffset dy="3" input="SourceAlpha"/>
      <feGaussianBlur stdDeviation="3" result="blur"/>
      <feFlood flood-opacity="0.161" result="color"/>
      <feComposite operator="out" in="SourceGraphic" in2="blur"/>
      <feComposite operator="in" in="color"/>
      <feComposite operator="in" in2="SourceGraphic"/>
    </filter>
  </defs>
  <g id="Group_7" data-name="Group 7" transform="translate(1.95 0)" opacity="0.302">
    <path id="Path_1" data-name="Path 1" d="M1299.42,15.684s-52.478-8.694-77.742,35.738,15.315,125.431,15.315,125.431,55.648,107.233-33.975,143.1" transform="translate(-1203.017 1.176)" fill="none" stroke="#707070" stroke-linecap="round" stroke-width="3"/>
    <g data-type="innerShadowGroup">
      <g id="Polygon_1-2" data-name="Polygon 1" transform="matrix(0.017, 1, -1, 0.017, 125.928, 0)" fill="#707070">
        <path d="M 29.43388938903809 26.50000381469727 L 3.566109895706177 26.50000381469727 C 3.015990018844604 26.50000381469727 2.526910066604614 26.21355247497559 2.257819890975952 25.73374366760254 C 1.988729953765869 25.25393295288086 1.999330043792725 24.68723297119141 2.286190032958984 24.21783256530762 L 15.22006988525391 3.053282976150513 C 15.49475002288818 2.603803157806396 15.97323036193848 2.335463047027588 16.5 2.335463047027588 C 17.02676010131836 2.335463047027588 17.50523948669434 2.603803157806396 17.77992057800293 3.053282976150513 L 30.71380996704102 24.21783256530762 C 31.00066947937012 24.68723297119141 31.01127052307129 25.25393295288086 30.74217987060547 25.73374366760254 C 30.47308921813965 26.21355247497559 29.98401069641113 26.50000381469727 29.43388938903809 26.50000381469727 Z" stroke="none"/>
        <path d="M 16.49999046325684 2.835453033447266 C 16.33136940002441 2.835453033447266 15.91066932678223 2.882083892822266 15.64670944213867 3.31401252746582 L 2.71282958984375 24.47855377197266 C 2.437179565429688 24.92962265014648 2.607780456542969 25.33556365966797 2.693920135498047 25.48916244506836 C 2.780059814453125 25.64275360107422 3.037490844726562 26.00000381469727 3.566110610961914 26.00000381469727 L 29.43387985229492 26.00000381469727 C 29.96250915527344 26.00000381469727 30.21994018554688 25.64275360107422 30.30607986450195 25.4891529083252 C 30.39221954345703 25.33556365966797 30.56282043457031 24.92961311340332 30.28717041015625 24.47855377197266 L 17.35327911376953 3.31401252746582 C 17.08932113647461 2.882083892822266 16.66861915588379 2.835453033447266 16.49999046325684 2.835453033447266 M 16.4999942779541 1.835458755493164 C 17.1583137512207 1.835458755493164 17.81663131713867 2.15449333190918 18.2065601348877 2.792562484741211 L 31.14044952392578 23.95710372924805 C 31.95487976074219 25.28980255126953 30.9957389831543 27.00000381469727 29.43387985229492 27.00000381469727 L 3.566110610961914 27.00000381469727 C 2.004249572753906 27.00000381469727 1.045120239257812 25.28980255126953 1.859550476074219 23.95710372924805 L 14.79343032836914 2.792562484741211 C 15.18335914611816 2.15449333190918 15.84167671203613 1.835458755493164 16.4999942779541 1.835458755493164 Z" stroke="none"/>
      </g>
      <g transform="matrix(1, 0, 0, 1, -1.95, 0)" filter="url(#Polygon_1)">
        <g id="Polygon_1-3" data-name="Polygon 1" transform="matrix(0.02, 1, -1, 0.02, 127.88, 0)" fill="#fff">
          <path d="M 29.43388938903809 26.50000381469727 L 3.566109895706177 26.50000381469727 C 3.015990018844604 26.50000381469727 2.526910066604614 26.21355247497559 2.257819890975952 25.73374366760254 C 1.988729953765869 25.25393295288086 1.999330043792725 24.68723297119141 2.286190032958984 24.21783256530762 L 15.22006988525391 3.053282976150513 C 15.49475002288818 2.603803157806396 15.97323036193848 2.335463047027588 16.5 2.335463047027588 C 17.02676010131836 2.335463047027588 17.50523948669434 2.603803157806396 17.77992057800293 3.053282976150513 L 30.71380996704102 24.21783256530762 C 31.00066947937012 24.68723297119141 31.01127052307129 25.25393295288086 30.74217987060547 25.73374366760254 C 30.47308921813965 26.21355247497559 29.98401069641113 26.50000381469727 29.43388938903809 26.50000381469727 Z" stroke="none"/>
          <path d="M 16.49999046325684 2.835453033447266 C 16.33136940002441 2.835453033447266 15.91066932678223 2.882083892822266 15.64670944213867 3.31401252746582 L 2.71282958984375 24.47855377197266 C 2.437179565429688 24.92962265014648 2.607780456542969 25.33556365966797 2.693920135498047 25.48916244506836 C 2.780059814453125 25.64275360107422 3.037490844726562 26.00000381469727 3.566110610961914 26.00000381469727 L 29.43387985229492 26.00000381469727 C 29.96250915527344 26.00000381469727 30.21994018554688 25.64275360107422 30.30607986450195 25.4891529083252 C 30.39221954345703 25.33556365966797 30.56282043457031 24.92961311340332 30.28717041015625 24.47855377197266 L 17.35327911376953 3.31401252746582 C 17.08932113647461 2.882083892822266 16.66861915588379 2.835453033447266 16.49999046325684 2.835453033447266 M 16.4999942779541 1.835458755493164 C 17.1583137512207 1.835458755493164 17.81663131713867 2.15449333190918 18.2065601348877 2.792562484741211 L 31.14044952392578 23.95710372924805 C 31.95487976074219 25.28980255126953 30.9957389831543 27.00000381469727 29.43387985229492 27.00000381469727 L 3.566110610961914 27.00000381469727 C 2.004249572753906 27.00000381469727 1.045120239257812 25.28980255126953 1.859550476074219 23.95710372924805 L 14.79343032836914 2.792562484741211 C 15.18335914611816 2.15449333190918 15.84167671203613 1.835458755493164 16.4999942779541 1.835458755493164 Z" stroke="none"/>
        </g>
      </g>
      <g id="Polygon_1-4" data-name="Polygon 1" transform="matrix(0.017, 1, -1, 0.017, 125.928, 0)" fill="none" stroke-linecap="round">
        <path d="M 29.43388938903809 26.50000381469727 L 3.566109895706177 26.50000381469727 C 3.015990018844604 26.50000381469727 2.526910066604614 26.21355247497559 2.257819890975952 25.73374366760254 C 1.988729953765869 25.25393295288086 1.999330043792725 24.68723297119141 2.286190032958984 24.21783256530762 L 15.22006988525391 3.053282976150513 C 15.49475002288818 2.603803157806396 15.97323036193848 2.335463047027588 16.5 2.335463047027588 C 17.02676010131836 2.335463047027588 17.50523948669434 2.603803157806396 17.77992057800293 3.053282976150513 L 30.71380996704102 24.21783256530762 C 31.00066947937012 24.68723297119141 31.01127052307129 25.25393295288086 30.74217987060547 25.73374366760254 C 30.47308921813965 26.21355247497559 29.98401069641113 26.50000381469727 29.43388938903809 26.50000381469727 Z" stroke="none"/>
        <path d="M 16.49999046325684 2.835453033447266 C 16.33136940002441 2.835453033447266 15.91066932678223 2.882083892822266 15.64670944213867 3.31401252746582 L 2.71282958984375 24.47855377197266 C 2.437179565429688 24.92962265014648 2.607780456542969 25.33556365966797 2.693920135498047 25.48916244506836 C 2.780059814453125 25.64275360107422 3.037490844726562 26.00000381469727 3.566110610961914 26.00000381469727 L 29.43387985229492 26.00000381469727 C 29.96250915527344 26.00000381469727 30.21994018554688 25.64275360107422 30.30607986450195 25.4891529083252 C 30.39221954345703 25.33556365966797 30.56282043457031 24.92961311340332 30.28717041015625 24.47855377197266 L 17.35327911376953 3.31401252746582 C 17.08932113647461 2.882083892822266 16.66861915588379 2.835453033447266 16.49999046325684 2.835453033447266 M 16.4999942779541 1.835458755493164 C 17.1583137512207 1.835458755493164 17.81663131713867 2.15449333190918 18.2065601348877 2.792562484741211 L 31.14044952392578 23.95710372924805 C 31.95487976074219 25.28980255126953 30.9957389831543 27.00000381469727 29.43387985229492 27.00000381469727 L 3.566110610961914 27.00000381469727 C 2.004249572753906 27.00000381469727 1.045120239257812 25.28980255126953 1.859550476074219 23.95710372924805 L 14.79343032836914 2.792562484741211 C 15.18335914611816 2.15449333190918 15.84167671203613 1.835458755493164 16.4999942779541 1.835458755493164 Z" stroke="none" fill="#707070"/>
      </g>
    </g>
  </g>
</svg>
